# xmcd CD database file
#
# Track frame offsets:
#	150
#	24170
#	44900
#	69682
#	93197
#	126536
#	143711
#	170631
#	193585
#	216744
#	243823
#	262605
#	280473
#
# Disc length: 3842 seconds
#
# Revision: 0
# Processed by: cddbd v1.5PL3 Copyright (c) Steve Scherf et al.
# Submitted via: CDex 1.51
#
DISCID=c70f000d
DTITLE=Kyle Coughlin - In the Shadow of Palms
DYEAR=2002
DGENRE=Jazz
TTITLE0=A Passing Glimpse
TTITLE1=Mr. Appleby
TTITLE2=A View from the Hill
TTITLE3=Olney
TTITLE4=Magnolias
TTITLE5=In the Shadow of Palms
TTITLE6=South Beach Samba
TTITLE7=Julington Creek
TTITLE8=Sea Turtle
TTITLE9=November Lilacs
TTITLE10=Tooty Frooty
TTITLE11=Summer's Lease
TTITLE12=Through the Fields
EXTD=YEAR: 2002
EXTT0=
EXTT1=
EXTT2=
EXTT3=
EXTT4=
EXTT5=
EXTT6=
EXTT7=
EXTT8=
EXTT9=
EXTT10=
EXTT11=
EXTT12=
PLAYORDER=
